<?xml version="1.0" standalone="no"?>
<!DOCTYPE svg PUBLIC "-//W3C//DTD SVG 20010904//EN"
 "http://www.w3.org/TR/2001/REC-SVG-20010904/DTD/svg10.dtd">
<svg version="1.0" xmlns="http://www.w3.org/2000/svg"
 width="225.000000pt" height="225.000000pt" viewBox="0 0 225.000000 225.000000"
 preserveAspectRatio="xMidYMid meet">

<g transform="translate(0.000000,225.000000) scale(0.100000,-0.100000)"
fill="#000000" stroke="none">
<path d="M378 1879 c-39 -20 -68 -63 -68 -98 0 -11 -11 -37 -25 -57 -26 -38
-30 -64 -16 -99 5 -12 2 -32 -7 -52 -12 -26 -13 -38 -4 -57 10 -22 6 -37 -30
-112 -47 -97 -48 -93 39 -121 46 -14 51 -18 42 -36 -6 -10 -8 -21 -5 -24 3 -3
51 -11 108 -18 88 -11 107 -10 132 2 25 13 28 13 23 1 -4 -11 1 -14 19 -10 14
2 24 0 24 -7 0 -6 8 -11 17 -11 13 0 14 -3 6 -11 -6 -6 -9 -18 -6 -25 3 -8 0
-14 -6 -14 -6 0 -11 -6 -11 -14 0 -21 -62 -28 -202 -24 -89 2 -119 0 -123 -10
-7 -19 7 -132 16 -132 5 0 9 5 9 10 0 24 28 6 81 -52 l58 -63 -35 -35 -34 -34
-48 47 c-27 26 -49 42 -49 35 0 -7 -6 -134 -13 -281 -12 -231 -11 -270 1 -278
18 -11 90 -11 108 0 10 6 26 90 52 268 21 142 39 265 40 273 3 34 18 -78 40
-294 15 -154 28 -233 37 -242 14 -15 89 -19 109 -6 10 7 9 82 -7 366 l-19 357
135 132 c75 73 142 136 150 140 8 4 20 23 28 42 8 18 24 36 35 40 12 3 21 11
21 16 0 5 7 9 15 9 8 0 15 3 15 6 0 14 -106 124 -117 122 -7 -2 -59 -48 -116
-103 -56 -55 -113 -109 -125 -119 l-22 -19 0 37 c0 36 1 37 32 34 30 -3 32 -1
45 47 20 77 19 78 -47 98 -73 21 -86 40 -69 98 11 36 10 45 -7 77 l-19 36 -7
-54 c-7 -57 -37 -96 -65 -86 -7 3 -13 -1 -13 -8 0 -8 11 -17 24 -20 22 -5 24
-9 16 -35 -14 -50 -30 -71 -53 -71 -30 0 -89 41 -107 75 -13 24 -13 28 3 36
27 16 23 82 -8 113 -30 30 -32 52 -6 65 13 7 24 6 37 -4 28 -21 44 -18 44 9 0
35 22 48 76 44 42 -3 49 -6 55 -28 5 -18 7 -10 7 25 0 61 -8 77 -52 104 -42
27 -108 27 -158 0z"/>
<path d="M1075 1870 c-4 -6 -5 -12 -4 -13 2 -2 13 -9 24 -17 19 -14 19 -14 5
4 -8 11 -13 21 -12 23 2 3 1 7 -1 9 -3 3 -8 0 -12 -6z"/>
<path d="M1160 1860 c0 -5 5 -10 10 -10 6 0 10 5 10 10 0 6 -4 10 -10 10 -5 0
-10 -4 -10 -10z"/>
<path d="M550 1724 c0 -8 5 -12 10 -9 6 4 8 11 5 16 -9 14 -15 11 -15 -7z"/>
<path d="M497 1628 c6 -11 43 -10 43 1 0 5 -11 8 -24 7 -13 0 -22 -4 -19 -8z"/>
<path d="M1042 1562 c-9 -7 -8 -13 8 -27 11 -10 20 -13 20 -7 0 6 3 17 6 26 7
17 -12 21 -34 8z"/>
<path d="M280 205 l0 -45 110 0 c90 0 110 3 110 15 0 16 -26 33 -62 39 -13 3
-25 5 -28 6 -3 2 -9 2 -13 1 -4 -1 -10 6 -13 14 -4 11 -21 15 -55 15 l-49 0 0
-45z"/>
<path d="M560 205 l0 -45 110 0 c61 0 110 4 110 9 0 14 -29 41 -46 42 -15 2
-31 5 -39 9 -3 1 -9 3 -14 4 -6 0 -16 7 -22 14 -7 6 -32 12 -56 12 l-43 0 0
-45z"/>
</g>
</svg>
